<?xml version="1.0" standalone="no"?>
<!DOCTYPE svg PUBLIC "-//W3C//DTD SVG 20010904//EN"
 "http://www.w3.org/TR/2001/REC-SVG-20010904/DTD/svg10.dtd">
<svg version="1.0" xmlns="http://www.w3.org/2000/svg"
 width="628.000000pt" height="628.000000pt" viewBox="0 0 628.000000 628.000000"
 preserveAspectRatio="xMidYMid meet">
<metadata>
Created by potrace 1.14, written by Peter Selinger 2001-2017
</metadata>
<g transform="translate(0.000000,628.000000) scale(0.100000,-0.100000)"
fill="#000000" stroke="none">
<path d="M3878 6265 c-2 -2 -34 -5 -73 -9 -259 -24 -481 -141 -612 -321 l-22
-30 -58 56 c-91 87 -155 133 -255 182 -536 261 -1136 -68 -1241 -681 -13 -73
-14 -185 -4 -371 l2 -35 -115 -41 c-287 -103 -467 -210 -630 -375 -208 -211
-350 -526 -386 -855 -10 -83 -10 -355 -1 -440 45 -439 211 -947 439 -1343 26
-46 48 -87 48 -92 0 -5 4 -10 8 -12 4 -1 26 -32 47 -68 45 -74 232 -325 263
-354 l21 -18 -23 -37 c-156 -252 -83 -570 194 -848 125 -125 250 -206 460
-296 215 -92 589 -199 805 -231 22 -4 54 -9 70 -11 131 -22 229 -29 395 -29
239 1 375 32 586 135 275 134 400 346 349 590 l-12 57 111 66 c308 184 590
434 819 726 145 185 317 479 422 725 25 61 53 125 61 142 8 18 37 99 64 180
73 218 129 455 156 659 4 33 9 61 9 64 1 3 5 41 9 85 4 44 9 91 12 105 17 112
25 578 11 740 -31 378 -128 694 -274 892 -139 189 -337 314 -543 343 -65 9
-80 15 -80 29 0 23 -39 137 -67 196 -132 279 -421 472 -774 515 -57 7 -187 13
-191 10z m-2708 -2848 c0 -2 -9 -12 -20 -22 -24 -21 -27 -14 -4 9 15 15 24 20
24 13z"/>
</g>
</svg>
